<?xml version="1.0" encoding="UTF-8"?>
<svg id="Capa_1" xmlns="http://www.w3.org/2000/svg" version="1.1" viewBox="0 0 1920 1080">
  <!-- Generator: Adobe Illustrator 30.2.1, SVG Export Plug-In . SVG Version: 2.1.1 Build 1)  -->
  <defs>
    <style>
      .st0 {
        fill: #11998c;
      }

      .st1 {
        fill: #fbc013;
      }

      .st2 {
        fill: #c90262;
      }

      .st3 {
        fill: #fcbf0b;
      }

      .st4 {
        fill: #f85b0b;
      }

      .st5 {
        fill: #fc5905;
      }
    </style>
  </defs>
  <g>
    <path class="st1" d="M556.65,510.95c-9.31,15.14-8.98,14.82-7.67,37.66l.89,15.43c2.8,48.67-4.97,91.26-52.7,113.76-10.46,4.93-24.1,6.73-35.49,5.93-32.94-2.3-61.86-22.99-74.01-53.82-4.27-10.83-5.56-22.08-6.01-33.67l-.99-25.63-.33-82.96c-.03-7.34,7-13.61,13.91-13.04,5.33.44,11.19,5.38,11.24,10.91l.89,100.18c.12,13.93,1.26,27.73,7.13,40.1,14.28,30.1,54.62,43.32,81.53,24.59,6.88-4.79,13.49-9.78,17.88-16.8,16.4-26.19,12.66-62.78,10.19-92.94-1.34-16.33,3.06-32.48,13.27-44.63,3.12-3.71,7.18-6.56,11.85-6.27,5.17.32,8.77,4,10.36,7.69,2.06,4.77.83,9.02-1.94,13.51Z"/>
    <path class="st1" d="M461.76,546.02c-2.75-1.38-8.07-5.19-8.08-8.72l-.38-133.29c-.02-7.44,2.71-12.47,10.86-14.89,4.97-1.47,14.78,3.81,14.78,10.89l.13,134.05c0,4.47-2.75,8.42-5.22,10.03-3.52,2.3-7.92,4.02-12.09,1.92Z"/>
    <path class="st1" d="M442.46,545.07c-.02,7.01-6.74,11.28-12.03,11.47s-12.57-4.37-12.58-10.84l-.13-122.41c0-7.49,6.38-12.57,12.96-12.44,7.15.15,12.07,5.85,12.05,13.54l-.28,120.68Z"/>
    <path class="st1" d="M514.9,524.71c0,6.93-6.74,10.25-11.87,10.77-4.07.41-12.46-3.76-12.48-9.55l-.23-112.83c-.01-5.58,7.42-9.94,12.26-10.17s12.21,4.59,12.21,10.2l.11,111.58Z"/>
  </g>
  <g>
    <g>
      <path class="st3" d="M993.29,533.49c-2.48-4.34-9.35-6.42-13.84-4.31-2.96,1.39-7.5,5.68-7.5,9.59l-.22,136.33c0,2.54-1.61,4.17-4.08,4.17h-55.04c-2.19,0-4.27-1.63-4.26-4.17l.71-137.95c.14-27.05,15.84-50.73,39.25-62.69,13.07-6.68,32.78-9.23,47.08-7.83,19.02,1.86,38.01,9.55,48.9,25.58,9.81,14.45,14.81,30.2,14.87,47.71l.43,136.18c-.62,2.64-2.75,3.24-5.23,3.23l-57.99-.21-.24-137.39c0-2.67-1.36-5.68-2.82-8.23Z"/>
      <path class="st5" d="M821.97,618.64l50.74.56.06,57.93c0,1.46-3.02,2.14-4,2.14h-32.69c-3.82-.01-7.3-1.29-11.26-1.06-18.16,1.04-36.67-2.3-51.06-14.17-11.7-9.66-19.25-24.44-19.77-40.22-1.08-32.6-.97-64.57-.03-97.15.48-16.52,7.95-31.68,20.32-41.74,12.24-9.95,28.04-11.71,43.37-12.69l7.05-.45c13.35-.85,26.48,1.02,40.19-.34,2-.2,6.97-.39,7.78,1.67l.21,58.34c-13.29.53-33.21-1.12-44.05.56-5.72.89-10.08,2.84-10.94,8.23s2.02,11.17,8.26,11.23l42.6.38.02,46.83-46.42.45c-4.81.05-8.85,4.05-8.5,8.72-1.57,5.17,2.13,10.72,8.14,10.79Z"/>
      <polygon class="st2" points="1192.25 678.08 1129.83 678.26 1129.78 531.64 1082.96 531.42 1082.97 472.09 1238.95 472.08 1238.94 531.53 1192.12 531.49 1192.25 678.08"/>
    </g>
    <g>
      <g>
        <path class="st4" d="M1246.18,496.7c2.65-4.66,6.79-6.65,10.76-6.94s8.13,2.56,10.52,5.99c14.34,20.54,14.85,30.77,12.61,56.99l-.97,11.35c-1.36,15.95-.15,41.09,5.46,56.44,7.19,19.65,24.19,34.97,45.43,37.9,29.03,3.99,56.72-14.64,64.43-42.81,3.93-14.37,2.95-28.73,4.02-43.3.31-4.2.92-8.06.73-12.37l-.56-12.29-.35-7.17c-.91-18.35-.75-36.41.29-54.48.4-6.98,7.81-11.61,12.98-11.17,7.27.62,11.86,6.7,11.84,14.28l-.19,90.59-1.02,18.61c-.88,16-4.26,31.7-12.53,45.37-13.5,22.32-38.62,37.45-64.5,39.66-5.11.43-10.33,0-15.37-.07-11.32-.16-21.16-4.73-30.89-9.71-8.25-4.22-14.57-10.12-20.95-17.08-14.32-15.62-21.53-35.86-23.17-57.26-.83-10.84-.9-44.4.8-54.53,2.23-13.33-.57-25.5-9.48-35.88-2.1-2.45-1.37-9.46.13-12.1Z"/>
        <path class="st4" d="M1350.81,452.01c1.05,7.15-.43,17.77.03,30.54.61,17.01.49,33.64.04,50.57-.2,7.61-6.27,14.3-14.1,13.38-3.6-.43-10.99-4.47-10.99-9.16v-137.22c0-4.43,4.5-7.82,7.1-9.32,3.66-2.1,9.54-1.65,12.69,1.11,5.58,4.88,5.07,11.37,4.84,18.01-.27,7.75-.51,35.94.39,42.1Z"/>
        <path class="st4" d="M1385.66,547.04c0,6.51-8.1,9.43-12.51,9.08-4.66-.38-11.42-4.61-11.45-11.08l-.46-120.64c-.02-4.97,1.86-7.82,4.73-10.52s7.55-4.22,11.51-2.32c2.67,1.28,8.2,5.11,8.27,8.82l-.1,126.67Z"/>
        <path class="st4" d="M1314.28,523.51c0,7.12-6.24,11.41-11.74,12.01-4.29.47-13.15-3.59-13.16-9.86l-.25-111.21c-.02-6.94,6.91-11.6,12.58-11.61s12.55,4.86,12.55,11.57l.02,109.1Z"/>
      </g>
      <path class="st0" d="M1502.05,679.38v-61.55c7.98.73,14.91-.42,22.47-.65,17.31-.53,32.92-10.49,38.3-26.94,3.6-11.04,3.52-21.89-.23-32.8-4.36-12.72-15.59-20.59-28.67-23.03-3.41-.64-6.79-1.91-10.38-1.93l-29.53-.19-.62,50.81-.45,95.37-62.22.04-.06-206.67,98.71.82c19.52.16,37.64,6.78,54.04,15.92,10.21,6.69,18.14,14.08,25.97,23.26l6.14,7.2c10.89,12.77,15.48,47.23,13.73,66.19s-7.46,37.68-19.37,52.88c-8.5,10.84-21.12,22.51-33.38,28.86-19.02,9.84-39.76,13.63-61.06,13.26-4.3-.07-7.78-1.39-13.39-.84Z"/>
    </g>
  </g>
  <g>
    <path class="st0" d="M670.92,471.24l67.45-.02c.36,4.33-1.49,7.37-3.16,11.41l-86.13,208.51c-6.33-10.33-8.84-19.92-13.48-29.98l-76.93-187.83c.25-1.65,1.56-2.15,3.1-2.15l68.92.15,18.69,61.91,8.78-25.9c.31-3.91,2.19-7.14,3.32-10.77l5.55-17.83c.8-2.58,1.44-4.94,3.89-7.49Z"/>
    <path class="st2" d="M366.77,644.11c-12.75,30.59-43.93,47.69-76.32,35.78l-.05-59.17c6.22,1.49,12.15,2.8,16.53-1.54,2.8-2.77,2.61-6.75,3.87-10.69l.02-136.37,62.24.08-.03,145.4c-1.79,9.54-2.68,17.92-6.25,26.5Z"/>
  </g>
</svg>